#!OML:ASF E:\emotionWalksFemale\Project 1\Capture day 1\Session 1\Female1.ASF
:FULLY-SPECIFIED
:DEGREES
523
root 9.31216 15.2574 -9.67026 -179.887 -0.869628 -172.928
lowerback 7.96485 2.79777 5.47532
upperback -3.82228 4.38019 1.13967
thorax -8.20641 1.83075 -2.49523
lowerneck -9.02209 -5.92917 -8.80603
upperneck 15.3234 -8.6767 8.68902
head 6.91625 -4.20177 3.44013
rclavicle 7.90169e-015 2.38542e-014
rhumerus -43.1123 12.2966 -79.5862
rradius 50.5914
rwrist 11.4006
rhand -5.12971 -59.968
rfingers 7.12502
rthumb 20.6688 -88.8875
lclavicle 7.90169e-015 2.38542e-014
lhumerus -61.0623 -4.28584 80.391
lradius 41.7674
lwrist -14.2388
lhand 3.18292 -24.9327
lfingers 7.12502
lthumb 28.6353 2.89318
rfemur 16.8213 13.4268 40.3218
rtibia -4.77083e-015
rfoot -8.84581 -24.2439
rtoes -4.28757
lfemur -33.7722 -7.67545 -15.0715
ltibia 37.926
lfoot -21.1003 15.2046
ltoes -11.6429
524
root 9.29251 15.2428 -9.91343 -179.935 -0.244942 -172.722
lowerback 8.18201 2.98945 5.94116
upperback -3.75272 4.70412 1.18225
thorax -8.20219 1.9638 -2.76337
lowerneck -9.3703 -5.97798 -8.86153
upperneck 15.332 -8.6756 8.62389
head 6.98039 -4.19169 3.41904
rclavicle 1.75676e-014 -1.59028e-014
rhumerus -42.1022 13.2302 -79.3853
rradius 52.7611
rwrist 10.6934
rhand -5.58273 -59.7105
rfingers 7.12502
rthumb 20.2334 -88.6767
lclavicle 1.75676e-014 -1.59028e-014
lhumerus -62.1022 -3.95632 80.7091
lradius 39.1431
lwrist -15.7601
lhand 4.56466 -24.9529
lfingers 7.12502
lthumb 29.9547 2.64258
rfemur 17.9313 12.7915 40.5422
rtibia -5.08889e-014
rfoot -9.36184 -23.6079
rtoes -2.88905
lfemur -33.8378 -10.668 -13.7091
ltibia 34.6693
lfoot -21.929 17.3964
ltoes -11.2737
525
root 9.27221 15.2284 -10.152 -179.975 0.436191 -172.582
lowerback 8.3432 3.02312 6.31734
upperback -3.82555 5.01502 1.18744
thorax -8.33078 2.17837 -3.03653
lowerneck -8.93426 -5.96939 -8.57729
upperneck 14.967 -8.64216 8.28375
head 6.75619 -4.19511 3.27908
rclavicle -3.2054e-015 2.78299e-015
rhumerus -41.4069 14.2153 -79.3002
rradius 54.9064
rwrist 10.5087
rhand -5.45346 -59.5908
rfingers 7.12502
rthumb 20.3577 -88.5437
lclavicle -3.2054e-015 2.78299e-015
lhumerus -63.4245 -3.64504 80.8668
lradius 36.6866
lwrist -17.5366
lhand 8.57609 -23.7378
lfingers 7.12502
lthumb 33.7746 3.0957
rfemur 18.9859 12.2236 40.6309
rtibia -1.90833e-014
rfoot -9.74298 -22.9693
rtoes -0.824178
lfemur -34.1241 -14.5913 -11.8653
ltibia 31.9681
lfoot -23.6962 19.999
ltoes -9.62914
526
root 9.25032 15.212 -10.3856 -179.939 1.07152 -172.361
lowerback 8.42562 3.19073 6.75845
upperback -3.85705 5.312 1.23204
thorax -8.35564 2.30118 -3.28073
lowerneck -8.5545 -5.87643 -8.37627
upperneck 14.4239 -8.48933 8.16601
head 6.48963 -4.12432 3.23704
rclavicle 6.4282e-014 2.18663e-014
rhumerus -40.6094 15.0463 -79.0139
rradius 56.9928
rwrist 10.7123
rhand -4.5948 -59.7849
rfingers 7.12502
rthumb 21.1827 -88.6476
lclavicle 6.4282e-014 2.18663e-014
lhumerus -64.7614 -3.32415 81.0345
lradius 34.6966
lwrist -19.4405
lhand 10.0345 -24.7024
lfingers 7.12502
lthumb 35.1591 1.81637
rfemur 19.9144 11.6491 40.7328
rtibia -6.04305e-014
rfoot -9.48655 -22.2504
rtoes -3.34462
lfemur -34.8071 -19.2798 -9.37701
ltibia 29.8904
lfoot -24.7334 23.4591
ltoes -7.90977
527
root 9.22899 15.196 -10.627 -179.9 1.78379 -172.201
lowerback 8.45754 3.39955 7.08106
upperback -3.85288 5.64203 1.28063
thorax -8.31502 2.44961 -3.45367
lowerneck -8.73771 -5.81339 -8.28145
upperneck 14.2698 -8.37022 8.15056
head 6.45776 -4.05262 3.22458
rclavicle -5.96106e-014 -1.15295e-014
rhumerus -39.7666 15.7736 -78.6679
rradius 59.0308
rwrist 10.8108
rhand -4.05343 -59.8003
rfingers 7.12502
rthumb 21.7026 -88.6038
lclavicle -5.96106e-014 -1.15295e-014
lhumerus -66.0906 -2.84334 81.0262
lradius 32.7892
lwrist -21.8741
lhand 12.2429 -25.1223
lfingers 7.12502
lthumb 37.2504 0.876956
rfemur 20.893 11.1634 40.7099
rtibia 4.45278e-014
rfoot -9.23363 -21.3203
rtoes -7.09249
lfemur -35.6653 -23.8826 -6.76759
ltibia 28.4234
lfoot -26.3459 27.0103
ltoes -6.3817
528
root 9.2115 15.1814 -10.8796 -179.918 2.56368 -172.25
lowerback 8.39114 3.62431 7.13003
upperback -3.84694 5.94231 1.28273
thorax -8.23414 2.59748 -3.5119
lowerneck -8.68285 -5.74405 -8.22295
upperneck 13.9808 -8.26759 8.23865
head 6.34916 -3.9925 3.2563
rclavicle -2.88238e-014 -2.10712e-014
rhumerus -38.9853 16.5128 -78.4032
rradius 61.0153
rwrist 10.3854
rhand -4.21219 -59.5451
rfingers 7.12502
rthumb 21.5502 -88.3661
lclavicle -2.88238e-014 -2.10712e-014
lhumerus -67.534 -2.6766 81.2588
lradius 31.1044
lwrist -24.1702
lhand 14.761 -25.2703
lfingers 7.12502
lthumb 39.6266 0.0673026
rfemur 21.9608 10.7336 40.4528
rtibia -6.67916e-014
rfoot -9.10846 -20.4649
rtoes -8.26384
lfemur -36.4249 -27.4016 -4.79094
ltibia 27.4908
lfoot -26.9339 29.8185
ltoes -3.72935
529
root 9.19229 15.162 -11.1297 -180.035 3.26945 -172.147
lowerback 8.43387 3.78106 7.3348
upperback -3.7861 6.18544 1.35979
thorax -8.15695 2.71318 -3.57504
lowerneck -8.87321 -5.73179 -8.10344
upperneck 13.9429 -8.22111 8.12161
head 6.3565 -3.96345 3.1993
rclavicle 8.27193e-014 -7.95139e-015
rhumerus -38.1607 17.2711 -78.088
rradius 62.971
rwrist 9.62283
rhand -4.46614 -59.2788
rfingers 7.12502
rthumb 21.3063 -88.1276
lclavicle 8.27193e-014 -7.95139e-015
lhumerus -68.8681 -2.73207 81.9248
lradius 29.6764
lwrist -26.1764
lhand 17.2627 -24.8851
lfingers 7.12502
lthumb 41.9771 -0.287419
rfemur 23.0695 10.2034 40.3445
rtibia -6.67916e-014
rfoot -8.83565 -19.7305
rtoes -8.29878
lfemur -36.7458 -29.0947 -3.66174
ltibia 26.9367
lfoot -27.2586 30.3811
ltoes -1.40797
530
root 9.16889 15.1414 -11.3757 -180.097 3.9954 -171.976
lowerback 8.57106 3.94714 7.68978
upperback -3.70094 6.46634 1.4327
thorax -8.08795 2.83922 -3.73609
lowerneck -9.14624 -5.66317 -8.10267
upperneck 13.7355 -8.08868 8.23387
head 6.33191 -3.87803 3.24231
rclavicle -4.29375e-014 -3.57812e-014
rhumerus -37.2735 17.8941 -77.6839
rradius 64.8917
rwrist 8.92979
rhand -4.2614 -59.2467
rfingers 7.12502
rthumb 21.5029 -88.0732
lclavicle -4.29375e-014 -3.57812e-014
lhumerus -69.9205 -2.43267 82.2638
lradius 28.1852
lwrist -28.6211
lhand 18.5641 -24.7122
lfingers 7.12502
lthumb 43.1952 -0.535566
rfemur 24.1052 9.72951 40.2321
rtibia 6.99722e-014
rfoot -8.56128 -18.892
rtoes -8.08656
lfemur -36.5147 -29.0013 -3.51111
ltibia 26.5969
lfoot -26.7539 29.6867
ltoes -0.553906
531
root 9.15138 15.1195 -11.626 -180.062 4.72866 -172.011
lowerback 8.50738 4.10122 7.73071
upperback -3.86009 6.68262 1.38694
thorax -8.1909 2.93417 -3.83646
lowerneck -8.75551 -5.51265 -7.74498
upperneck 13.4836 -7.94515 8.19198
head 6.15588 -3.80912 3.19542
rclavicle -5.03174e-014 -5.96354e-016
rhumerus -37.0856 18.3354 -77.6492
rradius 66.845
rwrist 8.36385
rhand -3.90663 -59.1309
rfingers 7.12502
rthumb 21.8436 -87.918
lclavicle -5.03174e-014 -5.96354e-016
lhumerus -71.5831 -2.10528 82.1857
lradius 27.2335
lwrist -31.0249
lhand 19.6636 -25.2661
lfingers 7.12502
lthumb 44.2216 -1.46632
rfemur 25.0742 9.31441 39.8604
rtibia 5.08889e-014
rfoot -8.03251 -17.8954
rtoes -8.35655
lfemur -35.8627 -27.6069 -4.3201
ltibia 26.4254
lfoot -24.8976 27.857
ltoes -2.11904
532
root 9.14183 15.0979 -11.8835 -180.089 5.37215 -172.199
lowerback 8.33975 4.24693 7.52047
upperback -4.0004 6.8379 1.30011
thorax -8.23947 3.01355 -3.82415
lowerneck -7.68079 -5.21933 -7.57536
upperneck 12.6285 -7.64121 8.57723
head 5.68525 -3.66638 3.34765
rclavicle -4.27636e-014 1.21259e-014
rhumerus -37.1609 18.4871 -77.7383
rradius 68.8099
rwrist 7.4308
rhand -4.18214 -58.841
rfingers 7.12502
rthumb 21.579 -87.6588
lclavicle -4.27636e-014 1.21259e-014
lhumerus -73.1796 -1.88339 81.8307
lradius 26.7235
lwrist -33.9234
lhand 21.4995 -26.4767
lfingers 7.12502
lthumb 45.9293 -3.3528
rfemur 26.0878 8.80608 39.3263
rtibia -2.54444e-014
rfoot -7.09164 -16.8526
rtoes -8.05343
lfemur -34.9076 -25.7129 -5.62706
ltibia 26.3548
lfoot -23.1566 25.1899
ltoes -3.14314
